<?xml version="1.0" encoding="utf-8"?>
<!-- Generator: Adobe Illustrator 19.2.0, SVG Export Plug-In . SVG Version: 6.00 Build 0)  -->
<svg version="1.1" id="Layer_1" xmlns="http://www.w3.org/2000/svg" xmlns:xlink="http://www.w3.org/1999/xlink" x="0px" y="0px"
	 viewBox="0 0 512 139" style="enable-background:new 0 0 512 139;" xml:space="preserve">
<style type="text/css">
	.st0{fill:#11110F;}
</style>
<g>
	<path class="st0" d="M98.7,59.3H55.6c-1.1,0-2,0.9-2,2v21.1c0,1.1,0.9,2,2,2h16.8v26.2c0,0-3.8,1.3-14.2,1.3
		c-12.3,0-29.5-4.5-29.5-42.3c0-37.8,17.9-42.8,34.7-42.8c14.5,0,20.8,2.6,24.8,3.8c1.3,0.4,2.4-0.9,2.4-2l4.8-20.3
		c0-0.5-0.2-1.1-0.8-1.6C93.1,5.5,83.2,0,58.2,0C29.5,0,0,12.2,0,71c0,58.8,33.8,67.6,62.2,67.6c23.6,0,37.8-10.1,37.8-10.1
		c0.6-0.3,0.7-1.1,0.7-1.5V61.3C100.7,60.2,99.8,59.3,98.7,59.3z M320.5,7.4c0-1.1-0.9-2-2-2h-24.2c-1.1,0-2,0.9-2,2
		c0,0,0,46.9,0,46.9h-37.8V7.4c0-1.1-0.9-2-2-2h-24.2c-1.1,0-2,0.9-2,2v126.9c0,1.1,0.9,2,2,2h24.2c1.1,0,2-0.9,2-2V80h37.8
		c0,0-0.1,54.3-0.1,54.3c0,1.1,0.9,2,2,2h24.3c1.1,0,2-0.9,2-2V7.4z M144.4,24.3c0-8.7-7-15.8-15.6-15.8c-8.6,0-15.6,7.1-15.6,15.8
		c0,8.7,7,15.8,15.6,15.8C137.4,40.1,144.4,33,144.4,24.3z M142.4,107.5V49c0-1.1-0.9-2-2-2h-24.2c-1.1,0-2.1,1.1-2.1,2.3v83.9
		c0,2.5,1.5,3.2,3.5,3.2h21.8c2.4,0,3-1.2,3-3.2V107.5z M413.2,46.9h-24.1c-1.1,0-2,0.9-2,2v62.2c0,0-6.1,4.5-14.8,4.5
		c-8.7,0-11-3.9-11-12.4V49c0-1.1-0.9-2-2-2h-24.4c-1.1,0-2,0.9-2,2v58.4c0,25.2,14.1,31.4,33.4,31.4c15.9,0,28.7-8.8,28.7-8.8
		s0.6,4.6,0.9,5.2c0.3,0.5,1,1.1,1.8,1.1l15.5-0.1c1.1,0,2-0.9,2-2l0-85.2C415.2,47.9,414.3,46.9,413.2,46.9z M468.6,115.7
		c-8.3-0.3-14-4-14-4V71.5c0,0,5.6-3.4,12.4-4c8.7-0.8,17,1.8,17,22.5C484,111.8,480.3,116.1,468.6,115.7z M478.1,44.2
		c-13.7,0-23,6.1-23,6.1v-43c0-1.1-0.9-2-2-2h-24.3c-1.1,0-2,0.9-2,2v126.9c0,1.1,0.9,2,2,2h16.9c0.8,0,1.3-0.4,1.8-1.1
		c0.4-0.7,1-5.8,1-5.8s9.9,9.4,28.8,9.4c22.1,0,34.8-11.2,34.8-50.3S491.8,44.2,478.1,44.2z M212.2,46.7H194c0,0,0-24,0-24
		c0-0.9-0.5-1.4-1.5-1.4h-24.8c-1,0-1.5,0.4-1.5,1.3v24.8c0,0-12.4,3-13.3,3.2c-0.8,0.2-1.5,1-1.5,1.9v15.6c0,1.1,0.9,2,2,2h12.7
		v37.5c0,27.9,19.6,30.6,32.8,30.6c6,0,13.2-1.9,14.4-2.4c0.7-0.3,1.1-1,1.1-1.8l0-17.2c0-1.1-0.9-2-2-2c-1.1,0-3.8,0.4-6.6,0.4
		c-8.9,0-12-4.2-12-9.5c0-5.4,0-35.7,0-35.7h18.2c1.1,0,2-0.9,2-2V48.8C214.2,47.6,213.3,46.7,212.2,46.7z"/>
</g>
</svg>
