<?xml version="1.0" encoding="utf-8"?>
<!-- Generator: Adobe Illustrator 19.2.0, SVG Export Plug-In . SVG Version: 6.00 Build 0)  -->
<svg version="1.1" id="Layer_1" xmlns="http://www.w3.org/2000/svg" xmlns:xlink="http://www.w3.org/1999/xlink" x="0px" y="0px"
	 viewBox="0 0 512 130" style="enable-background:new 0 0 512 130;" xml:space="preserve">
<style type="text/css">
	.st0{fill:#1A1918;}
	.st1{fill:#006087;}
	.st2{fill:#FFFFFF;}
</style>
<g>
	<path class="st0" d="M0,19.2h20V92h37v18.4H0V19.2"/>
	<path class="st0" d="M75.4,17.8c6.2,0,11.1,5,11.1,11.1c0,6.2-5,11.1-11.1,11.1c-6.1,0-11.1-5-11.1-11.1
		C64.3,22.8,69.3,17.8,75.4,17.8L75.4,17.8z M65.8,48.6H85v61.8H65.8V48.6z"/>
	<path class="st0" d="M95.7,48.6h18.4V57h0.3c2.6-4.9,8.8-10,18.2-10c19.5,0,23.1,12.8,23.1,29.4v33.9h-19.2V80.3
		c0-7.2-0.1-16.4-10-16.4c-10,0-11.5,7.8-11.5,15.9v30.6H95.7V48.6"/>
	<path class="st0" d="M165.3,19.2h19.2v54.5l21.8-25.2h23.5l-25.2,28.6l24.7,33.3h-24.1l-20.4-30.6h-0.3v30.6h-19.2V19.2"/>
	<path class="st0" d="M286.6,99.7c-6.2,7.8-16.3,12.3-26.3,12.3c-19.2,0-34.6-12.8-34.6-32.7s15.4-32.7,34.6-32.7
		c17.9,0,29.2,12.8,29.2,32.7v6h-44.6c1.5,7.3,7,12,14.5,12c6.3,0,10.5-3.2,13.7-7.6L286.6,99.7L286.6,99.7z M270.3,72.3
		c0.1-6.4-4.9-11.8-11.8-11.8c-8.4,0-13.1,5.8-13.6,11.8H270.3L270.3,72.3z"/>
	<path class="st0" d="M362.6,110.4h-17.7v-8.2h-0.2c-3,4.5-10.4,9.7-19.1,9.7c-18.4,0-30.6-13.3-30.6-32.1
		c0-17.3,10.8-33.2,28.4-33.2c7.9,0,15.4,2.2,19.7,8.2h0.3V19.2h19.2V110.4L362.6,110.4z M329.5,63.5c-9.6,0-15.4,6.4-15.4,15.8
		c0,9.4,5.8,15.8,15.4,15.8c9.6,0,15.4-6.4,15.4-15.8C344.9,69.9,339.1,63.5,329.5,63.5L329.5,63.5z"/>
	<path class="st1" d="M501.8,0H391.3c-5.3,0-9.6,4.2-9.6,9.3v110.9c0,5.2,4.3,9.4,9.6,9.4h110.4c5.3,0,9.6-4.2,9.6-9.4V9.3
		C511.4,4.2,507,0,501.8,0"/>
	<path class="st2" d="M410.6,17.8c6.1,0,11.1,5,11.1,11.1c0,6.2-5,11.1-11.1,11.1c-6.2,0-11.1-5-11.1-11.1
		C399.5,22.8,404.4,17.8,410.6,17.8L410.6,17.8z M401,48.6h19.2v61.8H401V48.6z"/>
	<path class="st2" d="M432.3,48.6h18.4V57h0.3c2.6-4.9,8.8-10,18.2-10c19.5,0,23.1,12.8,23.1,29.5v33.9H473V80.3
		c0-7.2-0.1-16.4-10-16.4c-10,0-11.5,7.8-11.5,15.9v30.6h-19.2V48.6"/>
</g>
</svg>
