<svg id="Layer_1" data-name="Layer 1" xmlns="http://www.w3.org/2000/svg" viewBox="0 0 1025.17 240"><defs><style>.cls-1{fill:#da552f;}.cls-2{fill:#fff;}</style></defs><title>product-hunt</title><circle class="cls-1" cx="120" cy="120" r="120"/><path class="cls-2" d="M336,260H278V380h24V344h34A42,42,0,0,0,336,260Zm0,60H302V284h34A18,18,0,0,1,336,320Z" transform="translate(-200 -200)"/><path class="cls-1" d="M520,360V280h36.75c17.09,0,26.39,11.55,26.39,25.33s-9.42,25.21-26.39,25.21h-20V360H520Zm46.07-54.67c0-6.6-5.07-10.61-11.67-10.61H536.73v21.09H554.4C561,315.82,566.07,311.81,566.07,305.33Z" transform="translate(-200 -200)"/><path class="cls-1" d="M593.32,360V301.68h15v7.66c4.13-5,11.08-9.07,18.15-9.07v14.61a19.23,19.23,0,0,0-4.13-.35c-5,0-11.55,2.83-14,6.48v39h-15Z" transform="translate(-200 -200)"/><path class="cls-1" d="M632.1,330.07c0-16.14,11.31-29.81,30-29.81s30.16,13.67,30.16,29.81S681,360,662.15,360,632.1,346.21,632.1,330.07Zm44.66,0c0-8.84-5.19-16.5-14.61-16.5s-14.5,7.66-14.5,16.5,5.18,16.61,14.5,16.61S676.76,339,676.76,330.07Z" transform="translate(-200 -200)"/><path class="cls-1" d="M742.65,360v-8.72A21.93,21.93,0,0,1,725.1,360c-14.26,0-25.21-10.84-25.21-29.93,0-18.5,10.73-29.81,25.21-29.81A21.59,21.59,0,0,1,742.65,309V280h15.08v80H742.65Zm0-19.8V320.06c-2.48-3.77-7.9-6.48-12.85-6.48-8.6,0-14.49,6.72-14.49,16.5s5.89,16.61,14.49,16.61C734.76,346.68,740.18,344,742.65,340.2Z" transform="translate(-200 -200)"/><path class="cls-1" d="M811,360v-8.6a27,27,0,0,1-20,8.6c-12.49,0-18.38-6.84-18.38-17.91V301.68h15V336.2c0,7.9,4.13,10.49,10.49,10.49a16.74,16.74,0,0,0,13-6.48V301.68h15V360H811Z" transform="translate(-200 -200)"/><path class="cls-1" d="M837.23,330.07c0-17.44,12.72-29.81,30.16-29.81,11.67,0,18.74,5.07,22.51,10.25l-9.79,9.19a13.79,13.79,0,0,0-12-6.13c-9.08,0-15.44,6.6-15.44,16.5s6.36,16.61,15.44,16.61a14.16,14.16,0,0,0,12-6.25l9.79,9.19c-3.77,5.19-10.84,10.37-22.51,10.37C849.95,360,837.23,347.63,837.23,330.07Z" transform="translate(-200 -200)"/><path class="cls-1" d="M902.76,344.33V314.76h-9.42V301.68h9.42V286.13h15v15.55h11.54v13.08H917.73v25.57c0,3.65,1.88,6.36,5.18,6.36,2.24,0,4.37-.83,5.18-1.77l3.19,11.43c-2.24,2-6.25,3.66-12.49,3.66C908.3,360,902.76,354.58,902.76,344.33Z" transform="translate(-200 -200)"/><path class="cls-1" d="M1025.11,360V325.48H988V360H971.27V280H988v30.87h37.12V280H1042v80h-16.85Z" transform="translate(-200 -200)"/><path class="cls-1" d="M1095.5,360v-8.6a27,27,0,0,1-20,8.6c-12.49,0-18.38-6.84-18.38-17.91V301.68h15V336.2c0,7.9,4.13,10.49,10.49,10.49a16.74,16.74,0,0,0,13-6.48V301.68h15V360h-15Z" transform="translate(-200 -200)"/><path class="cls-1" d="M1163.75,360V324.18c0-7.9-4.12-10.61-10.49-10.61a16.66,16.66,0,0,0-13,6.6V360h-15V301.68h15V309a26.63,26.63,0,0,1,19.92-8.72c12.61,0,18.61,7.07,18.61,18.14V360h-15.08Z" transform="translate(-200 -200)"/><path class="cls-1" d="M1196.66,344.33V314.76h-9.42V301.68h9.42V286.13h15v15.55h11.54v13.08h-11.54v25.57c0,3.65,1.88,6.36,5.18,6.36,2.24,0,4.37-.83,5.19-1.77l3.18,11.43c-2.24,2-6.25,3.66-12.49,3.66C1202.2,360,1196.66,354.58,1196.66,344.33Z" transform="translate(-200 -200)"/></svg>