<?xml version="1.0" encoding="utf-8"?>
<!-- Generator: Adobe Illustrator 19.2.0, SVG Export Plug-In . SVG Version: 6.00 Build 0)  -->
<svg version="1.1" id="Layer_1" xmlns="http://www.w3.org/2000/svg" xmlns:xlink="http://www.w3.org/1999/xlink" x="0px" y="0px"
	 viewBox="0 0 256 256" style="enable-background:new 0 0 256 256;" xml:space="preserve">
<style type="text/css">
	.st0{fill:url(#SVGID_1_);}
	.st1{fill:#FFFFFF;}
</style>
<g>
	<g>
		
			<linearGradient id="SVGID_1_" gradientUnits="userSpaceOnUse" x1="-7.4688" y1="178.3047" x2="-7.4688" y2="177.3047" gradientTransform="matrix(256 0 0 -256 2040 45646)">
			<stop  offset="0" style="stop-color:#DA552F"/>
			<stop  offset="1" style="stop-color:#D04B25"/>
		</linearGradient>
		<path class="st0" d="M128,256c70.7,0,128-57.3,128-128S198.7,0,128,0S0,57.3,0,128S57.3,256,128,256L128,256z"/>
		<path class="st1" d="M96,76.8v102.4h19.2v-32h29.1c19.3-0.5,34.9-16.2,34.9-35.2c0-19.6-15.6-35.2-34.9-35.2H96L96,76.8z
			 M144.5,128h-29.3V96h29.3c8.6,0,15.5,7.2,15.5,16S153.1,128,144.5,128L144.5,128z"/>
	</g>
</g>
</svg>
